<svg width="370" height="196" viewBox="0 0 370 196" fill="none" xmlns="http://www.w3.org/2000/svg">
<path d="M12.5312 196L19.7031 165.484H42.2031L73 30.9062H42.2031L31.7969 76.75H0.4375L18.0156 0.390625H191.969L174.391 76.75H143.031L153.578 30.9062H122.781L91.9844 165.484H114.484L107.312 196H12.5312ZM172.281 196L179.172 165.484H197.594L228.672 30.9062H206.734L213.906 0.390625H297.719C321.156 0.390625 338.922 5.45312 351.016 15.5781C363.109 25.6094 369.156 39.8594 369.156 58.3281C369.156 77.4531 362.547 93.2969 349.328 105.859C336.109 118.328 314.688 124.562 285.062 124.562H256.656L247.094 165.484H270.719L263.828 196H172.281ZM263.547 94.0469H280.281C292.562 94.0469 302.031 90.3906 308.688 83.0781C315.438 75.7656 318.812 66.4844 318.812 55.2344C318.812 39.0156 309.672 30.9062 291.391 30.9062H278.172L263.547 94.0469Z" fill="#FF9B7F"/>
</svg>
