<svg width="1727" height="201" viewBox="0 0 1727 201" fill="none" xmlns="http://www.w3.org/2000/svg">
<path d="M12.875 196L20.0469 165.484H42.5469L73.3438 30.9062H42.5469L32.1406 76.75H0.78125L18.3594 0.390625H192.312L174.734 76.75H143.375L153.922 30.9062H123.125L92.3281 165.484H114.828L107.656 196H12.875ZM317.469 166.891L309.031 196H246.312L248.844 185.031C235.625 193.469 223.344 197.688 212 197.688C200.188 197.688 190.391 194.125 182.609 187C174.922 179.875 171.078 170.875 171.078 160C171.078 145.094 177.172 133.047 189.359 123.859C201.547 114.578 218.516 109.938 240.266 109.938C245.141 109.938 253.484 111.25 265.297 113.875L267.547 102.625C267.828 101.5 267.969 100.422 267.969 99.3906C267.969 94.5156 265.672 90.5781 261.078 87.5781C256.578 84.5781 250.953 83.0781 244.203 83.0781C235.109 83.0781 224.469 86.1719 212.281 92.3594L191.609 71.8281C210.922 61.5156 230.562 56.3594 250.531 56.3594C269.094 56.3594 283.531 60.0625 293.844 67.4688C304.25 74.875 309.453 85.0469 309.453 97.9844C309.453 101.922 308.938 106.094 307.906 110.5L294.688 166.891H317.469ZM254.609 159.719L259.812 137.219C253.062 135.344 246.172 134.406 239.141 134.406C230.422 134.406 223.344 136.469 217.906 140.594C212.469 144.719 209.75 149.922 209.75 156.203C209.75 160.516 211.297 164.172 214.391 167.172C217.578 170.078 221.375 171.531 225.781 171.531C234.781 171.531 244.391 167.594 254.609 159.719ZM324.078 196L330.688 166.891H345.734L377.375 29.5H358.391L365.281 0.390625H426.031L397.203 124.562L445.578 82.2344H422.938L428.141 59.7344H498.312L494.094 86.0312H481.578L440.516 122.594L464.422 166.891H481.578L474.688 196H435.031L397.203 125.125L387.219 168.297H402.125L395.797 196H324.078ZM589.297 155.359L620.094 169.281C606.406 189.812 585.969 200.078 558.781 200.078C539.844 200.078 524.75 194.734 513.5 184.047C502.25 173.266 496.625 158.922 496.625 141.016C496.625 118.047 504.172 98.2188 519.266 81.5312C534.359 64.75 553.016 56.3594 575.234 56.3594C592.484 56.3594 606.875 61.8438 618.406 72.8125C629.938 83.6875 635.703 98.4062 635.703 116.969C635.703 123.156 635.047 129.625 633.734 136.375H536.984C536.422 139.469 536.141 142.422 536.141 145.234C536.141 153.859 538.438 160.656 543.031 165.625C547.719 170.5 553.859 172.938 561.453 172.938C573.172 172.938 582.453 167.078 589.297 155.359ZM542.047 114.156H595.906C596.281 112.094 596.469 110.031 596.469 107.969C596.469 100.656 594.266 94.7969 589.859 90.3906C585.547 85.8906 580.203 83.6406 573.828 83.6406C559.391 83.6406 548.797 93.8125 542.047 114.156ZM869.844 166.891L861.406 196H798.688L801.219 185.031C788 193.469 775.719 197.688 764.375 197.688C752.562 197.688 742.766 194.125 734.984 187C727.297 179.875 723.453 170.875 723.453 160C723.453 145.094 729.547 133.047 741.734 123.859C753.922 114.578 770.891 109.938 792.641 109.938C797.516 109.938 805.859 111.25 817.672 113.875L819.922 102.625C820.203 101.5 820.344 100.422 820.344 99.3906C820.344 94.5156 818.047 90.5781 813.453 87.5781C808.953 84.5781 803.328 83.0781 796.578 83.0781C787.484 83.0781 776.844 86.1719 764.656 92.3594L743.984 71.8281C763.297 61.5156 782.938 56.3594 802.906 56.3594C821.469 56.3594 835.906 60.0625 846.219 67.4688C856.625 74.875 861.828 85.0469 861.828 97.9844C861.828 101.922 861.312 106.094 860.281 110.5L847.062 166.891H869.844ZM806.984 159.719L812.188 137.219C805.438 135.344 798.547 134.406 791.516 134.406C782.797 134.406 775.719 136.469 770.281 140.594C764.844 144.719 762.125 149.922 762.125 156.203C762.125 160.516 763.672 164.172 766.766 167.172C769.953 170.078 773.75 171.531 778.156 171.531C787.156 171.531 796.766 167.594 806.984 159.719ZM950.562 196L957.453 165.484H975.875L1006.95 30.9062H985.016L992.188 0.390625H1076C1099.44 0.390625 1117.2 5.45312 1129.3 15.5781C1141.39 25.6094 1147.44 39.8594 1147.44 58.3281C1147.44 77.4531 1140.83 93.2969 1127.61 105.859C1114.39 118.328 1092.97 124.562 1063.34 124.562H1034.94L1025.38 165.484H1049L1042.11 196H950.562ZM1041.83 94.0469H1058.56C1070.84 94.0469 1080.31 90.3906 1086.97 83.0781C1093.72 75.7656 1097.09 66.4844 1097.09 55.2344C1097.09 39.0156 1087.95 30.9062 1069.67 30.9062H1056.45L1041.83 94.0469ZM1203.12 200.078C1185.59 200.078 1171.34 194.828 1160.38 184.328C1149.5 173.734 1144.06 160.047 1144.06 143.266C1144.06 118.891 1152.12 98.3125 1168.25 81.5312C1184.47 64.75 1204.34 56.3594 1227.88 56.3594C1246.25 56.3594 1260.73 62.2188 1271.33 73.9375C1281.92 85.5625 1287.22 99.5781 1287.22 115.984C1287.22 139.328 1279.16 159.203 1263.03 175.609C1247 191.922 1227.03 200.078 1203.12 200.078ZM1224.08 86.875C1212.55 86.875 1203.36 93.0625 1196.52 105.438C1189.77 117.719 1186.39 130.797 1186.39 144.672C1186.39 152.266 1188.17 158.312 1191.73 162.812C1195.3 167.312 1200.12 169.562 1206.22 169.562C1217.56 169.562 1226.84 163.422 1234.06 151.141C1241.28 138.859 1244.89 125.781 1244.89 111.906C1244.89 104.312 1243.02 98.2656 1239.27 93.7656C1235.52 89.1719 1230.45 86.875 1224.08 86.875ZM1402.67 155.359L1433.47 169.281C1419.78 189.812 1399.34 200.078 1372.16 200.078C1353.22 200.078 1338.12 194.734 1326.88 184.047C1315.62 173.266 1310 158.922 1310 141.016C1310 118.047 1317.55 98.2188 1332.64 81.5312C1347.73 64.75 1366.39 56.3594 1388.61 56.3594C1405.86 56.3594 1420.25 61.8438 1431.78 72.8125C1443.31 83.6875 1449.08 98.4062 1449.08 116.969C1449.08 123.156 1448.42 129.625 1447.11 136.375H1350.36C1349.8 139.469 1349.52 142.422 1349.52 145.234C1349.52 153.859 1351.81 160.656 1356.41 165.625C1361.09 170.5 1367.23 172.938 1374.83 172.938C1386.55 172.938 1395.83 167.078 1402.67 155.359ZM1355.42 114.156H1409.28C1409.66 112.094 1409.84 110.031 1409.84 107.969C1409.84 100.656 1407.64 94.7969 1403.23 90.3906C1398.92 85.8906 1393.58 83.6406 1387.2 83.6406C1372.77 83.6406 1362.17 93.8125 1355.42 114.156ZM1449.08 196L1455.69 166.891H1475.23L1493.38 88.8438H1468.91L1475.52 59.7344H1541.75L1537.39 78.7188C1559.14 64.9375 1576.72 58.0469 1590.12 58.0469C1608.03 58.0469 1619.75 66.2031 1625.28 82.5156C1650.59 66.2031 1670.38 58.0469 1684.62 58.0469C1694.94 58.0469 1703.61 61.1875 1710.64 67.4688C1717.77 73.6562 1721.33 81.8125 1721.33 91.9375C1721.33 95.4062 1720.91 98.9688 1720.06 102.625L1705.3 166.891H1726.67L1720.06 196H1656.92L1675.91 115.141C1676.66 112.047 1677.03 109.188 1677.03 106.562C1677.03 96.5312 1672.44 91.5156 1663.25 91.5156C1653.97 91.5156 1641.22 97.375 1625 109.094L1611.22 166.891H1632.45L1625.84 196H1562.84L1581.55 115.141C1582.3 111.672 1582.67 108.578 1582.67 105.859C1582.67 96.2969 1578.08 91.5156 1568.89 91.5156C1557.92 91.5156 1545.12 97.375 1530.5 109.094L1517 166.891H1538.23L1531.62 196H1449.08Z" fill="#FF9B7F"/>
</svg>
